<svg width="1280" height="500" viewBox="0 0 1280 500" fill="none" xmlns="http://www.w3.org/2000/svg">
<g clip-path="url(#clip0_1_2)">
<path d="M200.36 359V140.818H253.095V228.389H339.068V140.818H391.696V359H339.068V271.322H253.095V359H200.36ZM424.775 140.818H490.08L545.478 275.903H548.034L603.432 140.818H668.738V359H617.388V224.98H615.577L563.162 357.615H530.35L477.935 224.234H476.124V359H424.775V140.818ZM782.276 359H701.63V140.818H782.17C804.4 140.818 823.54 145.186 839.592 153.922C855.714 162.587 868.143 175.087 876.879 191.422C885.614 207.686 889.982 227.146 889.982 249.803C889.982 272.53 885.614 292.061 876.879 308.396C868.214 324.732 855.82 337.267 839.698 346.003C823.576 354.668 804.435 359 782.276 359ZM754.364 314.043H780.252C792.468 314.043 802.802 311.983 811.254 307.864C819.776 303.673 826.204 296.891 830.536 287.516C834.94 278.07 837.141 265.499 837.141 249.803C837.141 234.107 834.94 221.607 830.536 212.303C826.133 202.928 819.634 196.18 811.04 192.061C802.518 187.871 792.006 185.776 779.506 185.776H754.364V314.043ZM920.771 359V140.818H972.866V223.382H973.931C976.062 218.411 979.08 213.616 982.987 209C986.964 204.384 992.006 200.619 998.114 197.707C1004.29 194.724 1011.68 193.233 1020.27 193.233C1031.64 193.233 1042.25 196.216 1052.13 202.182C1062.07 208.148 1070.1 217.345 1076.2 229.774C1082.31 242.203 1085.37 258.041 1085.37 277.288C1085.37 295.825 1082.42 311.344 1076.52 323.844C1070.7 336.344 1062.82 345.719 1052.87 351.969C1043 358.219 1032.03 361.344 1019.95 361.344C1011.72 361.344 1004.58 359.994 998.54 357.295C992.504 354.597 987.425 351.045 983.306 346.642C979.258 342.239 976.133 337.516 973.931 332.473H972.333V359H920.771ZM971.8 277.182C971.8 285.989 972.972 293.659 975.316 300.193C977.731 306.727 981.175 311.805 985.65 315.428C990.195 318.979 995.629 320.754 1001.95 320.754C1008.34 320.754 1013.77 318.979 1018.25 315.428C1022.72 311.805 1026.1 306.727 1028.37 300.193C1030.71 293.659 1031.89 285.989 1031.89 277.182C1031.89 268.375 1030.71 260.74 1028.37 254.277C1026.1 247.814 1022.72 242.807 1018.25 239.256C1013.85 235.705 1008.41 233.929 1001.95 233.929C995.558 233.929 990.124 235.669 985.65 239.149C981.175 242.629 977.731 247.601 975.316 254.064C972.972 260.527 971.8 268.233 971.8 277.182Z" fill="url(#paint0_linear_1_2)"/>
</g>
<defs>
<linearGradient id="paint0_linear_1_2" x1="0" y1="0" x2="1280" y2="-1.83558e-05" gradientUnits="userSpaceOnUse">
<stop stop-color="#1DEE93"/>
<stop offset="0.490942" stop-color="#D9EA46"/>
<stop offset="1" stop-color="#FFE936"/>
</linearGradient>
<clipPath id="clip0_1_2">
<rect width="1280" height="500" fill="white"/>
</clipPath>
</defs>
</svg>
